<?xml version="1.0" encoding="UTF-8"?>
<svg version="1.1" xmlns="http://www.w3.org/2000/svg" width="500" height="500">
<path d="M0 0 C1.90749023 -0.04350586 1.90749023 -0.04350586 3.85351562 -0.08789062 C14.33657385 -0.15927866 14.33657385 -0.15927866 17.94921875 2.08203125 C22.51978398 6.63664337 22.46763388 10.53606273 22.625 16.8125 C23.02075036 26.59796913 24.29963696 35.64765189 29.1875 44.3125 C29.5175 45.3025 29.8475 46.2925 30.1875 47.3125 C30.8475 47.3125 31.5075 47.3125 32.1875 47.3125 C33.33921262 48.49808652 34.49013783 49.6844499 35.63671875 50.875 C42.96881608 57.67150332 50.81886504 59.63952114 60.5625 59.4375 C61.39394531 59.42847656 62.22539062 59.41945312 63.08203125 59.41015625 C65.11731337 59.3867622 67.15244564 59.35089725 69.1875 59.3125 C75.53112955 44.80686474 75.53112955 44.80686474 77.1875 29.3125 C76.03104174 27.93874631 76.03104174 27.93874631 72.875 28.0625 C68.93954651 28.32931041 68.09215528 28.90864735 65.1875 31.3125 C63.8675 31.3125 62.5475 31.3125 61.1875 31.3125 C60.79363985 29.92187069 60.4232416 28.52458608 60.0625 27.125 C59.74925781 25.95904297 59.74925781 25.95904297 59.4296875 24.76953125 C59.12111645 21.6390282 59.65107047 20.04940507 61.1875 17.3125 C63.25390625 15.6875 63.25390625 15.6875 65.75 14.3125 C66.64589844 13.81234375 67.54179687 13.3121875 68.46484375 12.796875 C69.36332031 12.30703125 70.26179687 11.8171875 71.1875 11.3125 C72.36505859 10.60867187 72.36505859 10.60867187 73.56640625 9.890625 C81.79220218 5.0266761 88.70502497 3.3357907 98.1875 5.3125 C104.47209527 7.18490154 109.58954005 9.59959105 114.1875 14.3125 C116.11139336 18.23128703 116.69055069 21.98847949 117.22265625 26.30078125 C117.34803017 27.29382515 117.34803017 27.29382515 117.47593689 28.30693054 C117.74026616 30.4122245 117.99529129 32.51852274 118.25 34.625 C118.42451302 36.0280717 118.59963772 37.43106745 118.77539062 38.83398438 C119.99497931 48.60788337 119.99497931 48.60788337 120.49560547 53.04052734 C120.62126646 56.47234912 120.62126646 56.47234912 122.1875 59.3125 C136.33585217 60.28549829 145.95588937 58.73762983 157.05859375 49.3203125 C166.27018444 40.63268385 167.16544463 29.15871949 167.5625 17.1875 C167.58054687 16.40246094 167.59859375 15.61742187 167.6171875 14.80859375 C167.80309159 10.21521349 168.13791629 6.98006103 171.1875 3.3125 C175.0505435 0.50750379 177.77923254 -0.07130157 182.51953125 -0.0859375 C183.73060547 -0.08980469 184.94167969 -0.09367188 186.18945312 -0.09765625 C188.07567383 -0.08025391 188.07567383 -0.08025391 190 -0.0625 C191.24587891 -0.07410156 192.49175781 -0.08570313 193.77539062 -0.09765625 C207.0737552 -0.05532724 214.87136853 3.98957434 224.25 13.1875 C227.4058287 16.42314538 230.37528766 19.78910942 233.3125 23.22265625 C236.20751248 26.44938891 239.33595554 29.43138727 242.46484375 32.4296875 C244.1875 34.3125 244.1875 34.3125 244.1875 36.3125 C244.8475 36.3125 245.5075 36.3125 246.1875 36.3125 C246.1875 36.9725 246.1875 37.6325 246.1875 38.3125 C246.8475 38.3125 247.5075 38.3125 248.1875 38.3125 C248.1875 38.9725 248.1875 39.6325 248.1875 40.3125 C249.08698364 40.71734619 249.08698364 40.71734619 250.00463867 41.13037109 C252.18552957 42.31143292 253.45519401 43.40621856 255.11328125 45.2265625 C255.92514893 46.1081604 255.92514893 46.1081604 256.75341797 47.00756836 C257.32979004 47.6444458 257.90616211 48.28132324 258.5 48.9375 C259.75889672 50.30619 261.01801868 51.67467286 262.27734375 53.04296875 C262.92429199 53.7498584 263.57124023 54.45674805 264.23779297 55.18505859 C267.32796938 58.55693403 270.44039383 61.90768971 273.5625 65.25 C274.17585205 65.90693848 274.7892041 66.56387695 275.42114258 67.24072266 C280.7040796 72.8653558 286.13815533 78.32996548 291.64599609 83.73413086 C297.24233383 89.25437232 302.5216505 94.97676752 307.1875 101.3125 C303.15131599 105.34868401 297.63549981 104.59449048 292.20092773 104.64257812 C285.74277302 104.54878912 280.13506333 102.79342027 274.1875 100.3125 C275.2739665 102.48543299 276.56008668 104.15033759 278.0625 106.0625 C278.67867188 106.85527344 279.29484375 107.64804688 279.9296875 108.46484375 C281.64207206 110.62458138 283.37572753 112.75609064 285.1328125 114.87890625 C285.63699707 115.49733398 286.14118164 116.11576172 286.66064453 116.75292969 C287.66953742 117.98992852 288.68863129 119.21868472 289.71826172 120.43847656 C291.125 122.17578125 291.125 122.17578125 293.1875 125.3125 C292.81640625 127.50854492 292.81640625 127.50854492 292.1875 129.3125 C266.79779893 128.88379471 266.79779893 128.88379471 259.87890625 122.0234375 C254.37812935 115.58576605 249.74882326 108.43413004 245.1875 101.3125 C248.39854807 107.70079564 252.29632719 113.43817979 256.53271484 119.17431641 C258.966017 122.49366309 261.08325496 125.84193687 263.08666992 129.44677734 C265.26488309 133.13848394 267.81596501 136.58192932 270.3125 140.0625 C271.3778787 141.55709601 272.44299371 143.05188003 273.5078125 144.546875 C273.97461426 145.19881836 274.44141602 145.85076172 274.92236328 146.52246094 C278.1875 151.14229545 278.1875 151.14229545 278.1875 155.3125 C253.01446203 154.75863778 253.01446203 154.75863778 244.1875 146.3125 C242.23033431 143.41978804 240.58054403 140.39197774 238.9375 137.3125 C238.49148438 136.50554687 238.04546875 135.69859375 237.5859375 134.8671875 C235.67730227 131.36223917 234.01939973 128.24030242 233.1875 124.3125 C232.5275 124.3125 231.8675 124.3125 231.1875 124.3125 C230.58421875 123.15492188 229.9809375 121.99734375 229.359375 120.8046875 C228.55225769 119.26553356 227.74495624 117.72647616 226.9375 116.1875 C226.34388672 115.04667969 226.34388672 115.04667969 225.73828125 113.8828125 C223.43826323 109.50900774 221.0122077 105.36815831 218.1875 101.3125 C222.14250614 108.72486251 226.16289977 116.09716636 230.25 123.4375 C239.38518384 139.85265477 239.38518384 139.85265477 243.5625 147.8515625 C250.74536327 161.65008143 250.74536327 161.65008143 258.91015625 174.8828125 C259.54244141 176.08550781 259.54244141 176.08550781 260.1875 177.3125 C259.8575 178.3025 259.5275 179.2925 259.1875 180.3125 C234.22154398 177.90461592 234.22154398 177.90461592 228.10546875 171.19140625 C225.04662425 167.40133443 223.05780058 163.38324115 221.125 158.9375 C220.44385337 157.42727932 219.76028015 155.91815061 219.07421875 154.41015625 C218.58961182 153.34112061 218.58961182 153.34112061 218.09521484 152.25048828 C216.98895203 149.88859634 215.74809691 147.62922668 214.4375 145.375 C212.41138413 141.84929179 210.94974607 138.27787722 209.5 134.484375 C206.38468349 126.95569344 202.71880366 119.65318053 199.1875 112.3125 C204.44783745 125.21044279 210.16190261 137.90711385 215.9609375 150.5703125 C218.02990367 155.19583558 219.98774243 159.8687462 221.953125 164.5390625 C222.92557647 167.17007356 222.92557647 167.17007356 224.1875 168.3125 C224.22813832 169.97867115 224.230221 171.64638095 224.1875 173.3125 C215.71715084 172.60663757 206.73395707 171.4531926 199.1875 167.3125 C199.1875 166.6525 199.1875 165.9925 199.1875 165.3125 C198.5275 165.3125 197.8675 165.3125 197.1875 165.3125 C192.79024892 160.03542903 190.64674883 153.6235832 188.5625 147.1875 C186.74680626 141.68316719 184.95000619 136.41895083 182.1875 131.3125 C183.10218675 134.08400086 184.01901508 136.85475748 184.9375 139.625 C185.20900879 140.44645508 185.48051758 141.26791016 185.76025391 142.11425781 C187.26469131 146.63913579 188.84663657 151.11236498 190.5625 155.5625 C191.94674901 159.27480415 192.62128555 162.29998367 192.1875 166.3125 C188.97569652 167.91840174 185.91143525 166.60262991 182.5625 165.8125 C181.87542969 165.67585937 181.18835938 165.53921875 180.48046875 165.3984375 C174.47148644 163.97792761 170.07844785 161.13323279 166.1875 156.3125 C164.59958005 153.0519251 163.74506515 149.77581282 162.9375 146.25 C162.46103201 144.39060078 161.98446916 142.53122586 161.5078125 140.671875 C161.28641602 139.76501953 161.06501953 138.85816406 160.83691406 137.92382812 C159.92385343 134.25236327 158.87238072 130.63175912 157.8125 127 C157.27083333 125.10416667 156.72916667 123.20833333 156.1875 121.3125 C158.39643876 130.91198386 160.70358775 140.45770638 163.35546875 149.9453125 C164.20946534 153.40139258 164.82102826 156.77141166 165.1875 160.3125 C164.8575 160.6425 164.5275 160.9725 164.1875 161.3125 C155.81554917 161.24943446 149.34770585 159.14848449 143.1875 153.3125 C139.4163815 147.69984309 138.09896722 142.48679493 136.9375 135.875 C136.76476562 134.95267578 136.59203125 134.03035156 136.4140625 133.08007812 C135.99362776 130.82608076 135.58510735 128.57061568 135.1875 126.3125 C134.54039062 127.40949219 133.89328125 128.50648438 133.2265625 129.63671875 C132.86256348 130.25377686 132.49856445 130.87083496 132.12353516 131.5065918 C130.59777861 134.45025929 130.5456202 136.03891301 131.1875 139.3125 C132.93884664 142.81519329 135.02502584 146.05146917 137.1875 149.3125 C137.67863281 150.06917969 138.16976562 150.82585937 138.67578125 151.60546875 C141.32142589 155.6345502 144.08081993 159.57288558 146.875 163.5 C152.57572418 171.64389169 152.57572418 171.64389169 153.640625 176.2890625 C155.39856542 183.3961645 159.64223785 188.80820425 165.37731934 193.25662231 C171.07908209 196.58245834 178.45367013 195.64861476 184.8125 195.4375 C187.15356715 195.41442109 189.49437988 195.40643156 191.83554077 195.39889526 C193.28134896 195.3883428 194.7271308 195.36542108 196.17251587 195.32888794 C197.84370018 195.28858166 199.51591416 195.29569612 201.1875 195.3125 C202.1875 196.3125 202.1875 196.3125 202.28515625 199.91015625 C202.2784822 201.39846867 202.26652183 202.88676432 202.25 204.375 C202.24548828 205.13361328 202.24097656 205.89222656 202.23632812 206.67382812 C202.2245068 208.55341871 202.20657078 210.43296899 202.1875 212.3125 C197.79045579 211.61045092 195.53878872 210.28078429 192.1875 207.3125 C192.8475 207.9725 193.5075 208.6325 194.1875 209.3125 C194.27397997 212.33929893 193.52474887 213.92361494 191.5546875 216.1953125 C189.80291429 217.94708571 188.0232857 219.64926857 186.1875 221.3125 C185.1975 220.9825 184.2075 220.6525 183.1875 220.3125 C183.0946875 218.4871875 183.0946875 218.4871875 183 216.625 C182.56663341 213.28273436 182.10576358 212.19710741 180.0625 209.3125 C176.3884338 206.75662786 174.57799631 206.5284828 170.1875 207.3125 C166.41426454 210.0193863 165.34785809 211.56005052 164.375 216.125 C164.313125 217.176875 164.25125 218.22875 164.1875 219.3125 C162.8675 219.3125 161.5475 219.3125 160.1875 219.3125 C160.1875 218.6525 160.1875 217.9925 160.1875 217.3125 C159.5275 217.3125 158.8675 217.3125 158.1875 217.3125 C158.1875 216.6525 158.1875 215.9925 158.1875 215.3125 C157.56875 215.02375 156.95 214.735 156.3125 214.4375 C154.1875 213.3125 154.1875 213.3125 152.1875 211.3125 C152.43191046 208.78692523 153.01110659 207.5272398 154.625 205.5625 C156.1875 204.3125 156.1875 204.3125 158.1875 204.3125 C157.73375 203.57 157.28 202.8275 156.8125 202.0625 C155.1875 199.3125 155.1875 199.3125 154.25 197.125 C152.91992666 194.85605137 151.59063289 194.27375316 149.1875 193.3125 C149.1875 192.6525 149.1875 191.9925 149.1875 191.3125 C147.99125 191.51875 146.795 191.725 145.5625 191.9375 C138.88214874 192.02246472 134.34693899 187.59748206 129.32421875 183.6953125 C126.93977463 181.88396641 124.91200107 180.48302639 122.1875 179.3125 C122.8165625 180.11171875 123.445625 180.9109375 124.09375 181.734375 C138.13625087 199.7035956 138.13625087 199.7035956 142.1875 208.3125 C142.8475 208.3125 143.5075 208.3125 144.1875 208.3125 C145.93527862 210.67624922 147.57355448 213.04688054 149.1875 215.5 C153.60615918 222.10733394 158.27266238 228.37928469 163.2890625 234.54296875 C165.16320736 237.27706073 165.84185721 239.05273088 166.1875 242.3125 C163.00017746 242.40047281 159.81317212 242.45321341 156.625 242.5 C155.72974609 242.52513672 154.83449219 242.55027344 153.91210938 242.57617188 C146.81494587 242.65416268 142.32193342 241.73263975 136.58203125 237.30078125 C133.18635392 233.06310889 131.10831672 228.42653125 128.875 223.5 C128.42060547 222.52095703 127.96621094 221.54191406 127.49804688 220.53320312 C126.38466437 218.13064087 125.28156598 215.72390422 124.1875 213.3125 C125.98429579 219.08167134 128.31441482 224.6107403 130.625 230.1875 C132.15703288 233.89137067 133.67669805 237.59992535 135.1875 241.3125 C135.65953857 242.43446777 135.65953857 242.43446777 136.14111328 243.57910156 C137.78794272 247.6463738 138.5165847 250.92470406 138.1875 255.3125 C129.51458612 255.83287483 123.21337059 255.62856655 116.47265625 249.83984375 C112.08191622 245.29880944 110.65198291 240.33900522 109.1875 234.3125 C108.8575 233.3225 108.5275 232.3325 108.1875 231.3125 C108.3525 232.570625 108.5175 233.82875 108.6875 235.125 C110.3694991 250.80716807 110.3694991 250.80716807 106.1875 257.3125 C105.775 258.158125 105.3625 259.00375 104.9375 259.875 C102.62466521 263.09644845 99.83123639 265.66694163 96.1875 267.3125 C91.8809333 266.93473099 89.70714802 264.33323897 86.87109375 261.3203125 C80.31393635 253.50040786 80.64175062 246.16568079 81.42578125 236.3203125 C81.64796083 233.97913658 81.89836566 231.64622714 82.1875 229.3125 C81.97996094 230.3025 81.77242187 231.2925 81.55859375 232.3125 C79.72868603 240.39314337 77.9660301 246.94736554 71.1875 252.3125 C65.15699738 256.09634478 59.07371001 255.61779995 52.1875 255.3125 C52.00235138 251.00660764 52.46574061 247.84134535 54.015625 243.828125 C54.40363281 242.80976563 54.79164063 241.79140625 55.19140625 240.7421875 C55.60261719 239.69289063 56.01382813 238.64359375 56.4375 237.5625 C56.83324219 236.52867187 57.22898438 235.49484375 57.63671875 234.4296875 C60.09370378 228.03347073 62.62636608 221.66764473 65.1875 215.3125 C64.94104736 215.86188232 64.69459473 216.41126465 64.44067383 216.97729492 C63.30538716 219.49029237 62.15290339 221.99503876 61 224.5 C60.41895508 225.79647461 60.41895508 225.79647461 59.82617188 227.11914062 C56.69880395 233.86495079 53.50617008 239.00284151 46.22607422 241.80712891 C42.11308022 242.82675736 37.95851543 242.61816566 33.75 242.5 C32.82767578 242.48646484 31.90535156 242.47292969 30.95507812 242.45898438 C28.69859617 242.42390953 26.44336774 242.37476387 24.1875 242.3125 C24.68650023 237.60641166 26.61038171 235.12728731 29.5625 231.5 C34.24507191 225.65797508 38.49228987 219.5965896 42.60693359 213.3425293 C43.75204585 211.63242495 44.96389042 209.96734698 46.1875 208.3125 C46.8475 208.3125 47.5075 208.3125 48.1875 208.3125 C48.44273437 207.76851562 48.69796875 207.22453125 48.9609375 206.6640625 C53.16529249 198.60348383 58.79598042 191.3133521 64.62109375 184.37109375 C66.37031365 182.3020758 66.37031365 182.3020758 67.1875 179.3125 C64.5404891 181.12328497 61.89509286 182.93641466 59.25 184.75 C58.49525391 185.26626953 57.74050781 185.78253906 56.96289062 186.31445312 C55.88491211 187.05405273 55.88491211 187.05405273 54.78515625 187.80859375 C54.12008057 188.26419678 53.45500488 188.7197998 52.76977539 189.18920898 C51.22399044 190.22025795 51.22399044 190.22025795 50.1875 191.3125 C48.66821962 191.38429964 47.14582518 191.39642007 45.625 191.375 C44.79871094 191.36597656 43.97242188 191.35695313 43.12109375 191.34765625 C42.48300781 191.33605469 41.84492188 191.32445312 41.1875 191.3125 C41.1875 191.9725 41.1875 192.6325 41.1875 193.3125 C40.5275 193.3125 39.8675 193.3125 39.1875 193.3125 C39.1875 193.9725 39.1875 194.6325 39.1875 195.3125 C38.5275 195.3125 37.8675 195.3125 37.1875 195.3125 C36.919375 195.89 36.65125 196.4675 36.375 197.0625 C35.17030141 199.3450868 33.77951885 201.2862942 32.1875 203.3125 C34.1675 205.6225 36.1475 207.9325 38.1875 210.3125 C36.90687515 212.0199998 35.56982443 213.68623596 34.1875 215.3125 C33.5275 215.3125 32.8675 215.3125 32.1875 215.3125 C32.1875 215.9725 32.1875 216.6325 32.1875 217.3125 C31.5275 217.3125 30.8675 217.3125 30.1875 217.3125 C30.1875 217.9725 30.1875 218.6325 30.1875 219.3125 C28.8675 219.3125 27.5475 219.3125 26.1875 219.3125 C26.125625 218.260625 26.06375 217.20875 26 216.125 C25.02714191 211.56005052 23.96073546 210.0193863 20.1875 207.3125 C16.6679048 206.60858096 14.51420923 206.48621618 11.40625 208.421875 C8.12437057 211.30125978 7.24520962 212.71616729 6.8125 217.1875 C6.93625 218.21875 7.06 219.25 7.1875 220.3125 C5.42578125 221.0078125 5.42578125 221.0078125 3.1875 221.3125 C0.31743885 219.46786988 -1.84441788 217.08930552 -3.8125 214.3125 C-3.875 211.5 -3.875 211.5 -2.8125 209.3125 C-2.1525 208.6525 -1.4925 207.9925 -0.8125 207.3125 C-1.8025 206.9825 -2.7925 206.6525 -3.8125 206.3125 C-4.039375 206.910625 -4.26625 207.50875 -4.5 208.125 C-6.15061133 210.87601888 -8.0097081 211.83734637 -10.8125 213.3125 C-12.63366003 211.49133997 -11.9448508 209.00578236 -11.94921875 206.5859375 C-11.94535156 205.83570313 -11.94148438 205.08546875 -11.9375 204.3125 C-11.94136719 203.56226563 -11.94523437 202.81203125 -11.94921875 202.0390625 C-11.93911053 196.43911053 -11.93911053 196.43911053 -10.8125 195.3125 C-8.32861726 195.18958072 -5.86818994 195.12645026 -3.3828125 195.1015625 C-1.85024976 195.07349237 -0.31769782 195.0448279 1.21484375 195.015625 C3.63980798 194.97434901 6.06457107 194.9374775 8.48974609 194.91113281 C10.82432089 194.88354973 13.15796871 194.837677 15.4921875 194.7890625 C16.21727509 194.78580963 16.94236267 194.78255676 17.68942261 194.77920532 C21.68341611 194.72609579 21.68341611 194.72609579 25.04345703 192.78271484 C25.42099121 192.29754395 25.79852539 191.81237305 26.1875 191.3125 C26.8475 191.3125 27.5075 191.3125 28.1875 191.3125 C28.1875 190.6525 28.1875 189.9925 28.1875 189.3125 C28.8475 189.3125 29.5075 189.3125 30.1875 189.3125 C30.455625 188.714375 30.72375 188.11625 31 187.5 C32.1875 185.3125 32.1875 185.3125 33.7265625 183.91015625 C35.56046032 182.20293074 35.56046032 182.20293074 35.75 178.5625 C36.68450447 173.84439205 38.88443614 170.29178414 41.5625 166.375 C41.99224121 165.74609863 42.42198242 165.11719727 42.86474609 164.46923828 C44.82913093 161.63116923 46.8229004 158.81641379 48.84619141 156.02001953 C50.54191399 153.67243224 52.20827743 151.30572758 53.875 148.9375 C54.41624512 148.21312744 54.95749023 147.48875488 55.51513672 146.74243164 C58.17495241 142.93755011 59.58611558 140.30061609 59.20703125 135.5859375 C58.55096292 132.00816262 57.3753841 129.26138727 55.1875 126.3125 C55.09774902 126.87122803 55.00799805 127.42995605 54.91552734 128.00561523 C51.05471644 151.29789223 51.05471644 151.29789223 41.5 158.3125 C36.69795858 161.02588651 31.60581874 161.20293841 26.1875 161.3125 C24.65831737 157.37153176 25.76017877 154.01353891 26.8046875 150.09765625 C26.98129913 149.40490097 27.15791077 148.71214569 27.33987427 147.99839783 C27.90524056 145.78821225 28.48346465 143.58163971 29.0625 141.375 C29.63155981 139.17127854 30.19798454 136.96689534 30.76370239 134.76231384 C31.11618357 133.39264401 31.47110482 132.02359909 31.8288269 130.6552887 C32.72216749 127.22358173 33.53447197 123.79823516 34.1875 120.3125 C33.92646484 121.36638916 33.66542969 122.42027832 33.39648438 123.50610352 C32.41182147 127.44819542 31.38882297 131.37951341 30.35449219 135.30883789 C29.91378018 137.00441765 29.48323792 138.70267698 29.06347656 140.40356445 C24.75912471 157.78926996 24.75912471 157.78926996 18.34179688 162.24633789 C14.70519315 164.04609406 11.17082724 165.04238988 7.1875 165.75 C6.41277344 165.90919922 5.63804687 166.06839844 4.83984375 166.23242188 C2.96024065 166.61530399 1.07438466 166.96728587 -0.8125 167.3125 C-1.91894531 165.66113281 -1.91894531 165.66113281 -2.8125 163.3125 C-2.24511719 160.69042969 -2.24511719 160.69042969 -1.109375 157.734375 C-0.50416016 156.11595703 -0.50416016 156.11595703 0.11328125 154.46484375 C0.55027344 153.34207031 0.98726563 152.21929687 1.4375 151.0625 C5.33077551 140.8472822 5.33077551 140.8472822 8.1875 130.3125 C7.83969482 131.23063477 7.49188965 132.14876953 7.13354492 133.09472656 C5.83728734 136.51144063 4.53258079 139.92487635 3.2253418 143.33740234 C2.6615191 144.81276269 2.09996909 146.28899371 1.54077148 147.76611328 C0.73501836 149.89330154 -0.07894744 152.01718964 -0.89453125 154.140625 C-1.14153275 154.79806702 -1.38853424 155.45550903 -1.64302063 156.13287354 C-2.97335444 159.5711391 -4.28462843 162.59340172 -6.8125 165.3125 C-7.4725 165.3125 -8.1325 165.3125 -8.8125 165.3125 C-8.8125 165.9725 -8.8125 166.6325 -8.8125 167.3125 C-16.98187687 170.82584371 -24.79272001 173.77505282 -33.8125 173.3125 C-33.30679001 167.14449617 -31.26461845 162.36925312 -28.625 156.8125 C-27.80737558 155.04804066 -26.99229423 153.2824008 -26.1796875 151.515625 C-25.7784668 150.64357422 -25.37724609 149.77152344 -24.96386719 148.87304688 C-22.37058163 143.10579095 -20.09100292 137.20980166 -17.8125 131.3125 C-18.2971875 132.42625 -18.781875 133.54 -19.28125 134.6875 C-35.82147274 172.4592026 -35.82147274 172.4592026 -44.8125 176.3125 C-52.5644829 178.79898508 -60.75416877 179.39322435 -68.8125 180.3125 C-69.8125 177.3125 -69.8125 177.3125 -68.37109375 174.30859375 C-67.67440542 173.11629175 -66.96665435 171.93040892 -66.25 170.75 C-65.88011963 170.12158203 -65.51023926 169.49316406 -65.12915039 168.84570312 C-63.50821366 166.10080011 -61.85283431 163.37833413 -60.1875 160.66015625 C-56.72669794 155.00813985 -53.74585477 149.22175713 -50.82421875 143.2734375 C-47.09309119 135.81118237 -42.90719961 128.57915002 -38.8125 121.3125 C-42.26957501 125.5732899 -44.70649773 130.40557342 -47.3203125 135.20507812 C-51.72563265 143.17840587 -55.78153065 150.28174158 -64.88671875 153.34765625 C-69.44133868 154.59555488 -74.05996842 155.0023792 -78.75 155.4375 C-80.06194336 155.56705078 -80.06194336 155.56705078 -81.40039062 155.69921875 C-83.53720254 155.90939697 -85.67478122 156.11175518 -87.8125 156.3125 C-86.86946968 148.53249986 -81.33798647 141.96762783 -77.0625 135.625 C-75.99218365 134.02864841 -74.92187116 132.43229424 -73.8515625 130.8359375 C-73.33239258 130.0634668 -72.81322266 129.29099609 -72.27832031 128.49511719 C-70.32392464 125.5850077 -68.38025979 122.66789018 -66.4375 119.75 C-65.22916667 117.9375 -64.02083333 116.125 -62.8125 114.3125 C-62.21179688 113.41144531 -61.61109375 112.51039063 -60.9921875 111.58203125 C-58.90234375 108.44726562 -58.90234375 108.44726562 -56.8125 105.3125 C-58.99617029 107.99200368 -61.08961804 110.69754327 -63.109375 113.50390625 C-68.5795656 121.0812564 -72.76753874 125.29751291 -81.8125 128.3125 C-83.36516653 128.4589714 -84.92245662 128.55944074 -86.48046875 128.62890625 C-87.81948242 128.69174805 -87.81948242 128.69174805 -89.18554688 128.75585938 C-90.11431641 128.79517578 -91.04308594 128.83449219 -92 128.875 C-93.41055664 128.93977539 -93.41055664 128.93977539 -94.84960938 129.00585938 C-97.17042854 129.11188665 -99.49135325 129.21395029 -101.8125 129.3125 C-102.39819336 127.45166016 -102.39819336 127.45166016 -102.8125 125.3125 C-101.44140625 123.0859375 -101.44140625 123.0859375 -99.375 120.6875 C-98.63894531 119.81351562 -97.90289062 118.93953125 -97.14453125 118.0390625 C-95.99017578 116.68941406 -95.99017578 116.68941406 -94.8125 115.3125 C-93.38827029 113.56864961 -91.97129123 111.81884613 -90.5625 110.0625 C-89.90507813 109.24523437 -89.24765625 108.42796875 -88.5703125 107.5859375 C-87.08479104 105.66466307 -85.73621187 103.73657873 -84.4375 101.6875 C-83.90125 100.90375 -83.365 100.12 -82.8125 99.3125 C-82.1525 99.3125 -81.4925 99.3125 -80.8125 99.3125 C-80.52375 98.714375 -80.235 98.11625 -79.9375 97.5 C-78.8125 95.3125 -78.8125 95.3125 -76.8125 92.3125 C-76.1525 92.3125 -75.4925 92.3125 -74.8125 92.3125 C-74.8125 91.3225 -74.8125 90.3325 -74.8125 89.3125 C-75.20179687 89.90417969 -75.59109375 90.49585938 -75.9921875 91.10546875 C-81.13117708 98.3639955 -87.05617726 102.46406516 -95.8125 104.3125 C-97.32645696 104.39068636 -98.84343507 104.42039909 -100.359375 104.41015625 C-101.20371094 104.40693359 -102.04804687 104.40371094 -102.91796875 104.40039062 C-104.22701172 104.38782227 -104.22701172 104.38782227 -105.5625 104.375 C-106.45066406 104.37048828 -107.33882812 104.36597656 -108.25390625 104.36132812 C-110.44017329 104.349574 -112.62630179 104.33314249 -114.8125 104.3125 C-115.4725 102.9925 -116.1325 101.6725 -116.8125 100.3125 C-116.09964844 99.61125 -115.38679688 98.91 -114.65234375 98.1875 C-108.43082832 92.03673309 -102.53828919 85.73925566 -96.90234375 79.04296875 C-96.27457031 78.30691406 -95.64679688 77.57085937 -95 76.8125 C-94.43667969 76.1421875 -93.87335938 75.471875 -93.29296875 74.78125 C-91.8125 73.3125 -91.8125 73.3125 -89.8125 73.3125 C-89.8125 72.6525 -89.8125 71.9925 -89.8125 71.3125 C-89.1525 71.3125 -88.4925 71.3125 -87.8125 71.3125 C-87.8125 70.6525 -87.8125 69.9925 -87.8125 69.3125 C-85.4375 66.6875 -85.4375 66.6875 -82.8125 64.3125 C-82.1525 64.3125 -81.4925 64.3125 -80.8125 64.3125 C-80.56701416 63.74031738 -80.32152832 63.16813477 -80.06860352 62.57861328 C-78.59981217 59.9287938 -76.88113952 58.17150717 -74.71484375 56.0546875 C-73.91369141 55.26449219 -73.11253906 54.47429687 -72.28710938 53.66015625 C-71.44986328 52.84417969 -70.61261719 52.02820313 -69.75 51.1875 C-68.09027378 49.56211294 -66.43261253 47.93461373 -64.77734375 46.3046875 C-64.0412085 45.58651855 -63.30507324 44.86834961 -62.54663086 44.12841797 C-60.74226993 42.41728455 -60.74226993 42.41728455 -59.8125 40.3125 C-59.1525 40.3125 -58.4925 40.3125 -57.8125 40.3125 C-57.8125 39.6525 -57.8125 38.9925 -57.8125 38.3125 C-57.1525 38.3125 -56.4925 38.3125 -55.8125 38.3125 C-55.8125 37.6525 -55.8125 36.9925 -55.8125 36.3125 C-55.1525 36.3125 -54.4925 36.3125 -53.8125 36.3125 C-53.44560059 35.45555542 -53.44560059 35.45555542 -53.07128906 34.58129883 C-51.59119478 31.91362695 -49.85326818 30.14396239 -47.671875 28.01171875 C-46.84816406 27.19896484 -46.02445312 26.38621094 -45.17578125 25.54882812 C-43.88220703 24.2871582 -43.88220703 24.2871582 -42.5625 23 C-35.78900269 16.43160578 -35.78900269 16.43160578 -29.52734375 9.38671875 C-27.18851882 6.58282842 -24.99736641 4.95375777 -21.625 3.4375 C-20.78582031 3.04820312 -19.94664062 2.65890625 -19.08203125 2.2578125 C-12.80813963 -0.35540914 -6.71816567 0.05061401 0 0 Z M-60.8125 71.3125 C-61.1425 71.9725 -61.4725 72.6325 -61.8125 73.3125 C-61.1525 73.3125 -60.4925 73.3125 -59.8125 73.3125 C-60.1425 72.6525 -60.4725 71.9925 -60.8125 71.3125 Z M250.1875 71.3125 C250.1875 71.9725 250.1875 72.6325 250.1875 73.3125 C250.8475 72.9825 251.5075 72.6525 252.1875 72.3125 C251.5275 71.9825 250.8675 71.6525 250.1875 71.3125 Z M-62.8125 73.3125 C-61.8125 75.3125 -61.8125 75.3125 -61.8125 75.3125 Z M252.1875 73.3125 C252.8475 74.6325 253.5075 75.9525 254.1875 77.3125 C254.1875 76.3225 254.1875 75.3325 254.1875 74.3125 C253.5275 73.9825 252.8675 73.6525 252.1875 73.3125 Z M255.1875 77.3125 C255.8475 78.6325 256.5075 79.9525 257.1875 81.3125 C257.1875 80.3225 257.1875 79.3325 257.1875 78.3125 C256.5275 77.9825 255.8675 77.6525 255.1875 77.3125 Z M-66.8125 78.3125 C-67.4725 79.6325 -68.1325 80.9525 -68.8125 82.3125 C-67.8225 81.6525 -66.8325 80.9925 -65.8125 80.3125 C-66.1425 79.6525 -66.4725 78.9925 -66.8125 78.3125 Z M230.1875 80.3125 C230.5175 81.3025 230.8475 82.2925 231.1875 83.3125 C231.1875 82.3225 231.1875 81.3325 231.1875 80.3125 C230.8575 80.3125 230.5275 80.3125 230.1875 80.3125 Z M-70.8125 83.3125 C-71.4725 84.6325 -72.1325 85.9525 -72.8125 87.3125 C-71.8225 86.6525 -70.8325 85.9925 -69.8125 85.3125 C-70.1425 84.6525 -70.4725 83.9925 -70.8125 83.3125 Z M260.1875 83.3125 C261.1875 85.3125 261.1875 85.3125 261.1875 85.3125 Z M233.1875 84.3125 C233.5175 85.3025 233.8475 86.2925 234.1875 87.3125 C234.1875 86.3225 234.1875 85.3325 234.1875 84.3125 C233.8575 84.3125 233.5275 84.3125 233.1875 84.3125 Z M-44.8125 85.3125 C-43.8125 87.3125 -43.8125 87.3125 -43.8125 87.3125 Z M261.1875 85.3125 C261.8475 85.9725 262.5075 86.6325 263.1875 87.3125 C263.1875 86.6525 263.1875 85.9925 263.1875 85.3125 C262.5275 85.3125 261.8675 85.3125 261.1875 85.3125 Z M235.1875 87.3125 C236.74451931 91.98355792 239.27197373 95.39955685 242.1875 99.3125 C242.5175 98.6525 242.8475 97.9925 243.1875 97.3125 C242.04571872 95.64305479 240.89897095 93.9770052 239.75 92.3125 C239.11191406 91.384375 238.47382813 90.45625 237.81640625 89.5 C237.27886719 88.778125 236.74132812 88.05625 236.1875 87.3125 C235.8575 87.3125 235.5275 87.3125 235.1875 87.3125 Z M263.1875 87.3125 C264.55120299 90.30470268 266.13658083 92.60276529 268.3125 95.0625 C268.85132813 95.67609375 269.39015625 96.2896875 269.9453125 96.921875 C270.35523438 97.38078125 270.76515625 97.8396875 271.1875 98.3125 C271.1875 94.55276115 270.22207593 93.85572371 267.75 91.125 C267.11191406 90.40957031 266.47382813 89.69414062 265.81640625 88.95703125 C265.27886719 88.41433594 264.74132812 87.87164062 264.1875 87.3125 C263.8575 87.3125 263.5275 87.3125 263.1875 87.3125 Z M-46.8125 88.3125 C-45.8125 90.3125 -45.8125 90.3125 -45.8125 90.3125 Z M-47.8125 90.3125 C-48.1425 90.9725 -48.4725 91.6325 -48.8125 92.3125 C-48.1525 92.3125 -47.4925 92.3125 -46.8125 92.3125 C-47.1425 91.6525 -47.4725 90.9925 -47.8125 90.3125 Z M-49.8125 92.3125 C-51.7925 95.2825 -51.7925 95.2825 -53.8125 98.3125 C-53.4825 98.9725 -53.1525 99.6325 -52.8125 100.3125 C-50.68447454 98.00683317 -50.68447454 98.00683317 -48.8125 95.3125 C-49.1425 94.3225 -49.4725 93.3325 -49.8125 92.3125 Z M-24.8125 94.3125 C-23.8125 96.3125 -23.8125 96.3125 -23.8125 96.3125 Z M214.1875 94.3125 C215.1875 96.3125 215.1875 96.3125 215.1875 96.3125 Z M-25.8125 96.3125 C-24.8125 98.3125 -24.8125 98.3125 -24.8125 98.3125 Z M215.1875 96.3125 C216.1875 98.3125 216.1875 98.3125 216.1875 98.3125 Z M-27.8125 99.3125 C-26.8125 101.3125 -26.8125 101.3125 -26.8125 101.3125 Z M-55.8125 101.3125 C-54.8125 103.3125 -54.8125 103.3125 -54.8125 103.3125 Z M-28.8125 101.3125 C-29.22242187 101.99957031 -29.63234375 102.68664062 -30.0546875 103.39453125 C-30.86292969 104.74611328 -30.86292969 104.74611328 -31.6875 106.125 C-32.22117187 107.01832031 -32.75484375 107.91164063 -33.3046875 108.83203125 C-34.43133092 110.68544724 -35.60936611 112.50779917 -36.8125 114.3125 C-36.4825 115.3025 -36.1525 116.2925 -35.8125 117.3125 C-34.44847957 115.0261988 -33.09615726 112.73428251 -31.75 110.4375 C-31.36005859 109.78652344 -30.97011719 109.13554687 -30.56835938 108.46484375 C-29.58805467 106.78184275 -28.69351568 105.04953801 -27.8125 103.3125 C-28.1425 102.6525 -28.4725 101.9925 -28.8125 101.3125 Z M195.1875 103.3125 C196.1875 105.3125 196.1875 105.3125 196.1875 105.3125 Z M196.1875 106.3125 C197.1875 108.3125 197.1875 108.3125 197.1875 108.3125 Z M174.1875 107.3125 C174.80361835 111.63181387 175.82988578 115.56458775 177.25 119.6875 C177.61222656 120.74710938 177.97445313 121.80671875 178.34765625 122.8984375 C178.62480469 123.69507813 178.90195312 124.49171875 179.1875 125.3125 C179.5175 125.3125 179.8475 125.3125 180.1875 125.3125 C179.75449236 118.49262971 178.27962176 113.39606979 175.1875 107.3125 C174.8575 107.3125 174.5275 107.3125 174.1875 107.3125 Z M15.1875 108.3125 C16.1875 110.3125 16.1875 110.3125 16.1875 110.3125 Z M197.1875 108.3125 C198.1875 110.3125 198.1875 110.3125 198.1875 110.3125 Z M-8.8125 110.3125 C-7.8125 112.3125 -7.8125 112.3125 -7.8125 112.3125 Z M14.1875 110.3125 C11.73332388 115.985642 9.72503096 121.13089396 9.1875 127.3125 C11.67012432 124.82987568 12.26036975 122.69474713 13.375 119.375 C13.92220703 117.78365234 13.92220703 117.78365234 14.48046875 116.16015625 C15.46914335 113.26490885 15.46914335 113.26490885 14.1875 110.3125 Z M-9.8125 112.3125 C-8.8125 114.3125 -8.8125 114.3125 -8.8125 114.3125 Z M-10.8125 114.3125 C-9.8125 116.3125 -9.8125 116.3125 -9.8125 116.3125 Z M154.1875 115.3125 C155.1875 117.3125 155.1875 117.3125 155.1875 117.3125 Z M-11.8125 116.3125 C-10.8125 118.3125 -10.8125 118.3125 -10.8125 118.3125 Z M-12.8125 118.3125 C-13.51215443 119.57668246 -14.19684763 120.84915402 -14.875 122.125 C-15.25785156 122.83269531 -15.64070313 123.54039062 -16.03515625 124.26953125 C-17.11513511 126.45947801 -17.11513511 126.45947801 -15.8125 129.3125 C-15.11284557 128.04831754 -14.42815237 126.77584598 -13.75 125.5 C-13.36714844 124.79230469 -12.98429687 124.08460938 -12.58984375 123.35546875 C-11.50986489 121.16552199 -11.50986489 121.16552199 -12.8125 118.3125 Z M180.1875 125.3125 C181.1875 127.3125 181.1875 127.3125 181.1875 127.3125 Z M67.1875 209.3125 C68.1875 211.3125 68.1875 211.3125 68.1875 211.3125 Z M122.1875 209.3125 C123.1875 211.3125 123.1875 211.3125 123.1875 211.3125 Z M66.1875 211.3125 C67.1875 213.3125 67.1875 213.3125 67.1875 213.3125 Z M84.1875 213.3125 C85.1875 217.3125 85.1875 217.3125 85.1875 217.3125 Z M105.1875 213.3125 C105.1875 214.9625 105.1875 216.6125 105.1875 218.3125 C105.5175 218.3125 105.8475 218.3125 106.1875 218.3125 C106.1875 216.6625 106.1875 215.0125 106.1875 213.3125 C105.8575 213.3125 105.5275 213.3125 105.1875 213.3125 Z M106.1875 220.3125 C107.1875 222.3125 107.1875 222.3125 107.1875 222.3125 Z " fill="#B8A57B" transform="translate(154.8125,142.6875)"/>
<path d="M0 0 C0.99 0.33 1.98 0.66 3 1 C4.16796875 3.43359375 4.16796875 3.43359375 5.1875 6.4375 C5.53167969 7.42621094 5.87585938 8.41492188 6.23046875 9.43359375 C7 12 7 12 7 14 C11.62 14 16.24 14 21 14 C21 14.99 21 15.98 21 17 C19.1015625 18.82421875 19.1015625 18.82421875 16.625 20.6875 C15.81289063 21.31011719 15.00078125 21.93273437 14.1640625 22.57421875 C12 24 12 24 10 24 C10.28875 24.74765625 10.5775 25.4953125 10.875 26.265625 C11.24625 27.25046875 11.6175 28.2353125 12 29.25 C12.37125 30.22453125 12.7425 31.1990625 13.125 32.203125 C14 35 14 35 14 39 C11.83125748 38.49396008 10.00032373 38.00016187 8 37 C8 36.34 8 35.68 8 35 C4.22946872 33.16859909 2.01387791 32.6620407 -2 34 C-3.35622245 34.96873032 -4.69417053 35.96434215 -6 37 C-6.66 37 -7.32 37 -8 37 C-8 37.66 -8 38.32 -8 39 C-9.32 38.67 -10.64 38.34 -12 38 C-11.21824485 33.15311808 -9.60155722 28.6233633 -8 24 C-8.66 24 -9.32 24 -10 24 C-10 23.34 -10 22.68 -10 22 C-10.7425 21.731875 -11.485 21.46375 -12.25 21.1875 C-14.90909879 20.0392528 -16.87781485 18.96498625 -19 17 C-19 16.01 -19 15.02 -19 14 C-14.05 13.67 -9.1 13.34 -4 13 C-3.67 11.02 -3.34 9.04 -3 7 C-2.13826227 4.57999041 -1.07589316 2.33889818 0 0 Z " fill="#BBA57D" transform="translate(249,90)"/>
<path d="M0 0 C1.32 0 2.64 0 4 0 C4 4.62 4 9.24 4 14 C7.96 15.65 11.92 17.3 16 19 C16 19.99 16 20.98 16 22 C14.4188708 22.50692692 12.83498617 23.00526443 11.25 23.5 C9.92742187 23.91765625 9.92742187 23.91765625 8.578125 24.34375 C6 25 6 25 2 25 C1.67 29.29 1.34 33.58 1 38 C-0.32 38 -1.64 38 -3 38 C-4.23828125 36.25 -4.23828125 36.25 -5.3125 34 C-6.51951027 31.79230735 -6.51951027 31.79230735 -8 30 C-11.37183542 29.24897465 -11.37183542 29.24897465 -15 30 C-16.4789417 30.16865125 -17.9581094 30.33533285 -19.4375 30.5 C-21.2009375 30.7475 -21.2009375 30.7475 -23 31 C-23 26.53266935 -20.23003427 24.57831408 -17.3359375 21.3515625 C-15.67110536 19.05363882 -15.67110536 19.05363882 -16.65234375 16.4375 C-17.78871212 14.38215547 -18.93244446 12.35952826 -20.1875 10.375 C-20.785625 9.26125 -21.38375 8.1475 -22 7 C-21.67 6.01 -21.34 5.02 -21 4 C-17.76834156 4.71730736 -14.81292078 5.81315074 -11.75 7.0625 C-10.85796875 7.42472656 -9.9659375 7.78695312 -9.046875 8.16015625 C-8.37140625 8.43730469 -7.6959375 8.71445313 -7 9 C-6.34 8.01 -5.68 7.02 -5 6 C-4.34 6 -3.68 6 -3 6 C-2.690625 5.195625 -2.38125 4.39125 -2.0625 3.5625 C-1 1 -1 1 0 0 Z " fill="#BAA57D" transform="translate(305,102)"/>
<path d="M0 0 C1.70884005 1.62339805 3.37446717 3.29319053 5 5 C5 5.66 5 6.32 5 7 C5.66 7 6.32 7 7 7 C7.99 8.485 7.99 8.485 9 10 C12.79303725 8.99806563 15.71536341 8.18975773 19 6 C21.6875 6.375 21.6875 6.375 24 7 C22.99032142 9.71836541 21.96046461 12.06082368 20.375 14.5 C18.77880931 17.40216488 18.61925059 18.73434163 19 22 C20.48920894 24.3038333 20.48920894 24.3038333 22.5 26.3125 C23.47453125 27.35857422 23.47453125 27.35857422 24.46875 28.42578125 C24.9740625 28.94527344 25.479375 29.46476562 26 30 C25.67 30.66 25.34 31.32 25 32 C20.05 31.67 15.1 31.34 10 31 C9.071875 32.485 8.14375 33.97 7.1875 35.5 C5.60546875 38.03125 5.60546875 38.03125 4 40 C3.01 40 2.02 40 1 40 C0.67 35.71 0.34 31.42 0 27 C-4.62 25.68 -9.24 24.36 -14 23 C-13.67 21.68 -13.34 20.36 -13 19 C-10.49609375 17.734375 -10.49609375 17.734375 -7.4375 16.75 C-6.42558594 16.41484375 -5.41367188 16.0796875 -4.37109375 15.734375 C-3.58863281 15.49203125 -2.80617187 15.2496875 -2 15 C-1.93941406 14.00097656 -1.87882813 13.00195312 -1.81640625 11.97265625 C-1.73261719 10.68230469 -1.64882812 9.39195313 -1.5625 8.0625 C-1.48128906 6.77472656 -1.40007812 5.48695312 -1.31640625 4.16015625 C-1 1 -1 1 0 0 Z " fill="#B9A57C" transform="translate(193,101)"/>
<path d="M0 0 C-0.66 1.65 -1.32 3.3 -2 5 C-4.475 4.01 -4.475 4.01 -7 3 C-7 2.01 -7 1.02 -7 0 C-4.3333581 -1.33332095 -2.83319697 -0.67102033 0 0 Z " fill="#C4A784" transform="translate(217,108)"/>
</svg>
